<?xml version="1.0" encoding="UTF-8" standalone="no"?><!DOCTYPE svg PUBLIC "-//W3C//DTD SVG 1.1//EN" "http://www.w3.org/Graphics/SVG/1.1/DTD/svg11.dtd"><!-- Generated by graphviz version 2.40.1 (20161225.0304)
 --><!-- Title: G Pages: 1 --><svg xmlns="http://www.w3.org/2000/svg" xmlns:xlink="http://www.w3.org/1999/xlink" width="350pt" height="68pt" viewBox="0.00 0.00 350.00 67.96">
<g id="graph0" class="graph" transform="scale(1 1) rotate(0) translate(4 63.9581)">
<title>G</title>
<polygon fill="#ffffff" stroke="transparent" points="-4,4 -4,-63.9581 346,-63.9581 346,4 -4,4"/>
<!-- 2 -->
<g id="node1" class="node">
<title>2</title>
<ellipse fill="none" stroke="#000000" cx="27" cy="-18" rx="27" ry="18"/>
<text text-anchor="middle" x="27" y="-13.8" font-family="Times,serif" font-size="14.00" fill="#000000">2</text>
</g>
<!-- 4 -->
<g id="node2" class="node">
<title>4</title>
<ellipse fill="none" stroke="#000000" cx="99" cy="-18" rx="27" ry="18"/>
<text text-anchor="middle" x="99" y="-13.8" font-family="Times,serif" font-size="14.00" fill="#000000">4</text>
</g>
<!-- 2&#45;&#45;4 -->
<g id="edge1" class="edge">
<title>2--4</title>
<path fill="none" stroke="#000000" d="M54,-18C59.9766,-18 65.9531,-18 71.9297,-18"/>
</g>
<!-- 1 -->
<g id="node3" class="node">
<title>1</title>
<ellipse fill="none" stroke="#000000" cx="171" cy="-18" rx="27" ry="18"/>
<text text-anchor="middle" x="171" y="-13.8" font-family="Times,serif" font-size="14.00" fill="#000000">1</text>
</g>
<!-- 4&#45;&#45;1 -->
<g id="edge2" class="edge">
<title>4--1</title>
<path fill="none" stroke="#000000" d="M126,-18C131.9766,-18 137.9531,-18 143.9297,-18"/>
</g>
<!-- 1&#45;&#45;2 -->
<g id="edge5" class="edge">
<title>1--2</title>
<path fill="none" stroke="#000000" d="M156.783,-33.5681C148.6304,-41.3189 137.7067,-49.8935 126,-54 103.3529,-61.9442 94.6471,-61.9442 72,-54 60.2933,-49.8935 49.3696,-41.3189 41.217,-33.5681"/>
</g>
<!-- 3 -->
<g id="node4" class="node">
<title>3</title>
<ellipse fill="none" stroke="#000000" cx="243" cy="-18" rx="27" ry="18"/>
<text text-anchor="middle" x="243" y="-13.8" font-family="Times,serif" font-size="14.00" fill="#000000">3</text>
</g>
<!-- 1&#45;&#45;3 -->
<g id="edge3" class="edge">
<title>1--3</title>
<path fill="none" stroke="#000000" d="M198,-18C203.9766,-18 209.9531,-18 215.9297,-18"/>
</g>
<!-- 5 -->
<g id="node5" class="node">
<title>5</title>
<ellipse fill="none" stroke="#000000" cx="315" cy="-18" rx="27" ry="18"/>
<text text-anchor="middle" x="315" y="-13.8" font-family="Times,serif" font-size="14.00" fill="#000000">5</text>
</g>
<!-- 1&#45;&#45;5 -->
<g id="edge6" class="edge">
<title>1--5</title>
<path fill="none" stroke="#000000" d="M185.217,-33.5681C193.3696,-41.3189 204.2933,-49.8935 216,-54 238.6471,-61.9442 247.3529,-61.9442 270,-54 281.7067,-49.8935 292.6304,-41.3189 300.783,-33.5681"/>
</g>
<!-- 3&#45;&#45;5 -->
<g id="edge4" class="edge">
<title>3--5</title>
<path fill="none" stroke="#000000" d="M270,-18C275.9766,-18 281.9531,-18 287.9297,-18"/>
</g>
</g>
</svg>